<mxfile host="app.diagrams.net" modified="2024-05-22T18:32:35.140Z" agent="Mozilla/5.0 (Windows NT 10.0; Win64; x64; rv:126.0) Gecko/20100101 Firefox/126.0" etag="EgNwux49Ams0eM22Tk3S" version="24.4.4" type="device">
  <diagram name="PÃ¡gina-1" id="WGe0Hk64mJlpdM23Yo2j">
    <mxGraphModel dx="2049" dy="2246" grid="1" gridSize="10" guides="1" tooltips="1" connect="1" arrows="1" fold="1" page="1" pageScale="1" pageWidth="827" pageHeight="1169" math="0" shadow="0">
      <root>
        <mxCell id="0" />
        <mxCell id="1" parent="0" />
        <mxCell id="-OGWa6dfMV56XT3KgPaG-41" value="Usuario (Pessoa)" style="html=1;overflow=block;blockSpacing=1;swimlane;childLayout=stackLayout;horizontal=1;horizontalStack=0;resizeParent=1;resizeParentMax=0;resizeLast=0;collapsible=0;fontStyle=0;marginBottom=0;swimlaneFillColor=#ffffff;startSize=28;whiteSpace=wrap;fontSize=15;align=left;spacing=0;strokeWidth=1.5;" vertex="1" parent="1">
          <mxGeometry x="1005" y="394" width="300" height="164" as="geometry" />
        </mxCell>
        <mxCell id="-OGWa6dfMV56XT3KgPaG-42" value="- id_usuario: int" style="part=1;html=1;resizeHeight=0;strokeColor=none;fillColor=none;align=left;verticalAlign=middle;spacingLeft=4;spacingRight=4;overflow=hidden;rotatable=0;points=[[0,0.5],[1,0.5]];portConstraint=eastwest;swimlaneFillColor=#ffffff;whiteSpace=wrap;fontSize=15;" vertex="1" parent="-OGWa6dfMV56XT3KgPaG-41">
          <mxGeometry y="28" width="300" height="76" as="geometry" />
        </mxCell>
        <mxCell id="-OGWa6dfMV56XT3KgPaG-43" value="" style="line;strokeWidth=1;fillColor=none;align=left;verticalAlign=middle;spacingTop=-1;spacingLeft=3;spacingRight=3;rotatable=0;labelPosition=right;points=[];portConstraint=eastwest;" vertex="1" parent="-OGWa6dfMV56XT3KgPaG-41">
          <mxGeometry y="104" width="300" height="8" as="geometry" />
        </mxCell>
        <mxCell id="-OGWa6dfMV56XT3KgPaG-44" value="&lt;div style=&quot;display: flex; justify-content: center; text-align: center; align-items: baseline; font-size: 0; line-height: 1.25;margin-top: -2px;&quot;&gt;&lt;span&gt;&lt;span style=&quot;font-size:15px;&quot;&gt;+ cadastro(): void&lt;/span&gt;&lt;span style=&quot;font-size:13px;&quot;&gt;&#xa;&lt;/span&gt;&lt;span style=&quot;font-size:15px;&quot;&gt;+ login(): void&lt;/span&gt;&lt;span style=&quot;font-size:13px;&quot;&gt;&#xa;&lt;/span&gt;&lt;span style=&quot;font-size:15px;&quot;&gt;+ alterar_dados: void&lt;/span&gt;&lt;span style=&quot;font-size:13px;&quot;&gt;&#xa;&lt;/span&gt;&lt;span style=&quot;font-size:15px;&quot;&gt;+ pedir_emprestimo(Livro_fisico): void&lt;/span&gt;&lt;span style=&quot;font-size:13px;&quot;&gt;&#xa;&lt;/span&gt;&lt;span style=&quot;font-size:15px;&quot;&gt;+ listar_emprestimos(): void&lt;/span&gt;&lt;span style=&quot;font-size:13px;&quot;&gt;&#xa;&lt;/span&gt;&lt;span style=&quot;font-size:15px;&quot;&gt;+ comprar(Livro_digital): void&lt;/span&gt;&lt;/span&gt;&lt;/div&gt;" style="part=1;html=1;resizeHeight=0;strokeColor=none;fillColor=none;align=left;verticalAlign=middle;spacingLeft=4;spacingRight=4;overflow=hidden;rotatable=0;points=[[0,0.5],[1,0.5]];portConstraint=eastwest;swimlaneFillColor=#ffffff;whiteSpace=wrap;fontSize=15;" vertex="1" parent="-OGWa6dfMV56XT3KgPaG-41">
          <mxGeometry y="112" width="300" height="52" as="geometry" />
        </mxCell>
        <mxCell id="-OGWa6dfMV56XT3KgPaG-45" value="&amp;lt;&amp;lt;Pessoa&amp;gt;&amp;gt;" style="html=1;overflow=block;blockSpacing=1;swimlane;childLayout=stackLayout;horizontal=1;horizontalStack=0;resizeParent=1;resizeParentMax=0;resizeLast=0;collapsible=0;fontStyle=0;marginBottom=0;swimlaneFillColor=#ffffff;startSize=28;whiteSpace=wrap;fontSize=15;align=left;spacing=0;strokeWidth=1.5;" vertex="1" parent="1">
          <mxGeometry x="1425" y="171" width="214" height="164" as="geometry" />
        </mxCell>
        <mxCell id="-OGWa6dfMV56XT3KgPaG-46" value="&lt;div style=&quot;display: flex; justify-content: center; text-align: center; align-items: baseline; font-size: 0; line-height: 1.25;margin-top: -2px;&quot;&gt;&lt;span&gt;&lt;span style=&quot;font-size:15px;&quot;&gt;+ nome: string&lt;/span&gt;&lt;span style=&quot;font-size:13px;&quot;&gt;&#xa;&lt;/span&gt;&lt;span style=&quot;font-size:15px;&quot;&gt;- endereco: string&lt;/span&gt;&lt;span style=&quot;font-size:13px;&quot;&gt;&#xa;&lt;/span&gt;&lt;span style=&quot;font-size:15px;&quot;&gt;+ cpf: string&lt;/span&gt;&lt;span style=&quot;font-size:13px;&quot;&gt;&#xa;&lt;/span&gt;&lt;span style=&quot;font-size:15px;&quot;&gt;+ data_nascimento: string&lt;/span&gt;&lt;span style=&quot;font-size:13px;&quot;&gt;&#xa;&lt;/span&gt;&lt;span style=&quot;font-size:15px;&quot;&gt;- genero: string&lt;/span&gt;&lt;span style=&quot;font-size:13px;&quot;&gt;&#xa;&lt;/span&gt;&lt;span style=&quot;font-size:15px;&quot;&gt;- telefone: string&lt;/span&gt;&lt;/span&gt;&lt;/div&gt;" style="part=1;html=1;resizeHeight=0;strokeColor=none;fillColor=none;align=left;verticalAlign=middle;spacingLeft=4;spacingRight=4;overflow=hidden;rotatable=0;points=[[0,0.5],[1,0.5]];portConstraint=eastwest;swimlaneFillColor=#ffffff;whiteSpace=wrap;fontSize=15;" vertex="1" parent="-OGWa6dfMV56XT3KgPaG-45">
          <mxGeometry y="28" width="214" height="76" as="geometry" />
        </mxCell>
        <mxCell id="-OGWa6dfMV56XT3KgPaG-47" value="" style="line;strokeWidth=1;fillColor=none;align=left;verticalAlign=middle;spacingTop=-1;spacingLeft=3;spacingRight=3;rotatable=0;labelPosition=right;points=[];portConstraint=eastwest;" vertex="1" parent="-OGWa6dfMV56XT3KgPaG-45">
          <mxGeometry y="104" width="214" height="8" as="geometry" />
        </mxCell>
        <mxCell id="-OGWa6dfMV56XT3KgPaG-48" value="" style="part=1;resizeHeight=0;strokeColor=none;fillColor=none;align=left;verticalAlign=middle;spacingLeft=4;spacingRight=4;rotatable=0;points=[[0,0.5],[1,0.5]];portConstraint=eastwest;swimlaneFillColor=#ffffff;whiteSpace=wrap;overflow=block;blockSpacing=1;html=1;fontSize=13;" vertex="1" parent="-OGWa6dfMV56XT3KgPaG-45">
          <mxGeometry y="112" width="214" height="52" as="geometry" />
        </mxCell>
        <mxCell id="-OGWa6dfMV56XT3KgPaG-49" value="Livro_fisico(Livro)" style="html=1;overflow=block;blockSpacing=1;swimlane;childLayout=stackLayout;horizontal=1;horizontalStack=0;resizeParent=1;resizeParentMax=0;resizeLast=0;collapsible=0;fontStyle=0;marginBottom=0;swimlaneFillColor=#ffffff;startSize=28;whiteSpace=wrap;fontSize=16.7;align=left;spacing=0;strokeWidth=1.5;" vertex="1" parent="1">
          <mxGeometry x="379" y="420" width="176" height="81" as="geometry" />
        </mxCell>
        <mxCell id="-OGWa6dfMV56XT3KgPaG-50" value="+ tipo_capa:string" style="part=1;html=1;resizeHeight=0;strokeColor=none;fillColor=none;align=left;verticalAlign=middle;spacingLeft=4;spacingRight=4;overflow=hidden;rotatable=0;points=[[0,0.5],[1,0.5]];portConstraint=eastwest;swimlaneFillColor=#ffffff;whiteSpace=wrap;fontSize=16.3;" vertex="1" parent="-OGWa6dfMV56XT3KgPaG-49">
          <mxGeometry y="28" width="176" height="32" as="geometry" />
        </mxCell>
        <mxCell id="-OGWa6dfMV56XT3KgPaG-51" value="" style="line;strokeWidth=1;fillColor=none;align=left;verticalAlign=middle;spacingTop=-1;spacingLeft=3;spacingRight=3;rotatable=0;labelPosition=right;points=[];portConstraint=eastwest;" vertex="1" parent="-OGWa6dfMV56XT3KgPaG-49">
          <mxGeometry y="60" width="176" height="8" as="geometry" />
        </mxCell>
        <mxCell id="-OGWa6dfMV56XT3KgPaG-52" value="" style="part=1;html=1;resizeHeight=0;strokeColor=none;fillColor=none;align=left;verticalAlign=middle;spacingLeft=4;spacingRight=4;overflow=hidden;rotatable=0;points=[[0,0.5],[1,0.5]];portConstraint=eastwest;swimlaneFillColor=#ffffff;whiteSpace=wrap;fontSize=13;" vertex="1" parent="-OGWa6dfMV56XT3KgPaG-49">
          <mxGeometry y="68" width="176" height="13" as="geometry" />
        </mxCell>
        <mxCell id="-OGWa6dfMV56XT3KgPaG-53" value="Funcionario (Pessoa)" style="html=1;overflow=block;blockSpacing=1;swimlane;childLayout=stackLayout;horizontal=1;horizontalStack=0;resizeParent=1;resizeParentMax=0;resizeLast=0;collapsible=0;fontStyle=0;marginBottom=0;swimlaneFillColor=#ffffff;startSize=28;whiteSpace=wrap;fontSize=15;align=left;spacing=0;strokeWidth=1.5;" vertex="1" parent="1">
          <mxGeometry x="1005" y="-21" width="300" height="205.32500000000002" as="geometry" />
        </mxCell>
        <mxCell id="-OGWa6dfMV56XT3KgPaG-54" value="- id_funcionario:int" style="part=1;html=1;resizeHeight=0;strokeColor=none;fillColor=none;align=left;verticalAlign=middle;spacingLeft=4;spacingRight=4;overflow=hidden;rotatable=0;points=[[0,0.5],[1,0.5]];portConstraint=eastwest;swimlaneFillColor=#ffffff;whiteSpace=wrap;fontSize=15;" vertex="1" parent="-OGWa6dfMV56XT3KgPaG-53">
          <mxGeometry y="28" width="300" height="82" as="geometry" />
        </mxCell>
        <mxCell id="-OGWa6dfMV56XT3KgPaG-55" value="" style="line;strokeWidth=1;fillColor=none;align=left;verticalAlign=middle;spacingTop=-1;spacingLeft=3;spacingRight=3;rotatable=0;labelPosition=right;points=[];portConstraint=eastwest;" vertex="1" parent="-OGWa6dfMV56XT3KgPaG-53">
          <mxGeometry y="110" width="300" height="8" as="geometry" />
        </mxCell>
        <mxCell id="-OGWa6dfMV56XT3KgPaG-56" value="&lt;div style=&quot;display: flex; justify-content: center; text-align: center; align-items: baseline; font-size: 0; line-height: 1.25;margin-top: -2px;&quot;&gt;&lt;span&gt;&lt;span style=&quot;font-size:15px;&quot;&gt;+ login(): void&lt;/span&gt;&lt;span style=&quot;font-size:13px;&quot;&gt;&#xa;&lt;/span&gt;&lt;span style=&quot;font-size:15px;&quot;&gt;+ cadastrar_usuario(): void&lt;/span&gt;&lt;span style=&quot;font-size:13px;&quot;&gt;&#xa;&lt;/span&gt;&lt;span style=&quot;font-size:15px;&quot;&gt;+ cadastrarLivro(Livro_fisico): void&lt;/span&gt;&lt;span style=&quot;font-size:13px;&quot;&gt;&#xa;&lt;/span&gt;&lt;span style=&quot;font-size:15px;&quot;&gt;+ cadastrarLivro_digital(Livro_digital):void&#xa;&lt;/span&gt;&lt;span style=&quot;font-size:15px;&quot;&gt;+ cadastrar_funcionario(): void&lt;/span&gt;&lt;/span&gt;&lt;/div&gt;" style="part=1;html=1;resizeHeight=0;strokeColor=none;fillColor=none;align=left;verticalAlign=middle;spacingLeft=4;spacingRight=4;overflow=hidden;rotatable=0;points=[[0,0.5],[1,0.5]];portConstraint=eastwest;swimlaneFillColor=#ffffff;whiteSpace=wrap;fontSize=15;" vertex="1" parent="-OGWa6dfMV56XT3KgPaG-53">
          <mxGeometry y="118" width="300" height="87.32500000000002" as="geometry" />
        </mxCell>
        <mxCell id="-OGWa6dfMV56XT3KgPaG-57" value="Livro_digital(Livro)" style="html=1;overflow=block;blockSpacing=1;swimlane;childLayout=stackLayout;horizontal=1;horizontalStack=0;resizeParent=1;resizeParentMax=0;resizeLast=0;collapsible=0;fontStyle=0;marginBottom=0;swimlaneFillColor=#ffffff;startSize=28;whiteSpace=wrap;fontSize=15;align=left;spacing=0;strokeWidth=1.5;" vertex="1" parent="1">
          <mxGeometry x="379" y="14" width="176" height="95" as="geometry" />
        </mxCell>
        <mxCell id="-OGWa6dfMV56XT3KgPaG-58" value="&lt;div style=&quot;display: flex; justify-content: center; text-align: center; align-items: baseline; font-size: 0; line-height: 1.25;margin-top: -2px;&quot;&gt;&lt;span&gt;&lt;span style=&quot;font-size:15px;&quot;&gt;+ tamanho_mb: string&lt;/span&gt;&lt;span style=&quot;font-size:13px;&quot;&gt;&#xa;&lt;/span&gt;&lt;span style=&quot;font-size:15px;&quot;&gt;+ preco: float&lt;/span&gt;&lt;/span&gt;&lt;/div&gt;" style="part=1;html=1;resizeHeight=0;strokeColor=none;fillColor=none;align=left;verticalAlign=middle;spacingLeft=4;spacingRight=4;overflow=hidden;rotatable=0;points=[[0,0.5],[1,0.5]];portConstraint=eastwest;swimlaneFillColor=#ffffff;whiteSpace=wrap;fontSize=15;" vertex="1" parent="-OGWa6dfMV56XT3KgPaG-57">
          <mxGeometry y="28" width="176" height="40" as="geometry" />
        </mxCell>
        <mxCell id="-OGWa6dfMV56XT3KgPaG-59" value="" style="line;strokeWidth=1;fillColor=none;align=left;verticalAlign=middle;spacingTop=-1;spacingLeft=3;spacingRight=3;rotatable=0;labelPosition=right;points=[];portConstraint=eastwest;" vertex="1" parent="-OGWa6dfMV56XT3KgPaG-57">
          <mxGeometry y="68" width="176" height="8" as="geometry" />
        </mxCell>
        <mxCell id="-OGWa6dfMV56XT3KgPaG-60" value="" style="part=1;resizeHeight=0;strokeColor=none;fillColor=none;align=left;verticalAlign=middle;spacingLeft=4;spacingRight=4;rotatable=0;points=[[0,0.5],[1,0.5]];portConstraint=eastwest;swimlaneFillColor=#ffffff;whiteSpace=wrap;overflow=block;blockSpacing=1;html=1;fontSize=13;" vertex="1" parent="-OGWa6dfMV56XT3KgPaG-57">
          <mxGeometry y="76" width="176" height="19" as="geometry" />
        </mxCell>
        <mxCell id="-OGWa6dfMV56XT3KgPaG-61" value="&amp;lt;&amp;lt;Livro&amp;gt;&amp;gt;" style="html=1;overflow=block;blockSpacing=1;swimlane;childLayout=stackLayout;horizontal=1;horizontalStack=0;resizeParent=1;resizeParentMax=0;resizeLast=0;collapsible=0;fontStyle=0;marginBottom=0;swimlaneFillColor=#ffffff;startSize=28;whiteSpace=wrap;fontSize=15;align=left;spacing=0;strokeWidth=1.5;" vertex="1" parent="1">
          <mxGeometry x="45" y="126" width="214" height="252" as="geometry" />
        </mxCell>
        <mxCell id="-OGWa6dfMV56XT3KgPaG-62" value="&lt;div style=&quot;display: flex; justify-content: center; text-align: center; align-items: baseline; font-size: 0; line-height: 1.25;margin-top: -2px;&quot;&gt;&lt;span&gt;&lt;span style=&quot;font-size:15px;&quot;&gt;+ id_livro: int&lt;/span&gt;&lt;span style=&quot;font-size:13px;&quot;&gt;&#xa;&lt;/span&gt;&lt;span style=&quot;font-size:15px;&quot;&gt;+ nome: string&lt;/span&gt;&lt;span style=&quot;font-size:13px;&quot;&gt;&#xa;&lt;/span&gt;&lt;span style=&quot;font-size:15px;&quot;&gt;+ isbn: string&lt;/span&gt;&lt;span style=&quot;font-size:13px;&quot;&gt;&#xa;&lt;/span&gt;&lt;span style=&quot;font-size:15px;&quot;&gt;+ autor: string&lt;/span&gt;&lt;span style=&quot;font-size:13px;&quot;&gt;&#xa;&lt;/span&gt;&lt;span style=&quot;font-size:15px;&quot;&gt;+ editora: string&lt;/span&gt;&lt;span style=&quot;font-size:13px;&quot;&gt;&#xa;&lt;/span&gt;&lt;span style=&quot;font-size:15px;&quot;&gt;+ qtd_paginas: int&lt;/span&gt;&lt;span style=&quot;font-size:13px;&quot;&gt;&#xa;&lt;/span&gt;&lt;span style=&quot;font-size:15px;&quot;&gt;+ nmr_edicao: int&lt;/span&gt;&lt;span style=&quot;font-size:13px;&quot;&gt;&#xa;&lt;/span&gt;&lt;span style=&quot;font-size:15px;&quot;&gt;+ genero: boolean     &lt;/span&gt;&lt;span style=&quot;font-size:13px;&quot;&gt;&#xa;&lt;/span&gt;&lt;span style=&quot;font-size:15px;&quot;&gt;+ faixa_etaria: int&lt;/span&gt;&lt;span style=&quot;font-size:13px;&quot;&gt;&#xa;&lt;/span&gt;&lt;span style=&quot;font-size:15px;&quot;&gt;+ disponivel=True: boolean&lt;/span&gt;&lt;span style=&quot;font-size:13px;&quot;&gt;&#xa;&lt;/span&gt;&lt;span style=&quot;font-size:15px;&quot;&gt;+ id_usuario=None: int&lt;/span&gt;&lt;/span&gt;&lt;/div&gt;" style="part=1;html=1;resizeHeight=0;strokeColor=none;fillColor=none;align=left;verticalAlign=middle;spacingLeft=4;spacingRight=4;overflow=hidden;rotatable=0;points=[[0,0.5],[1,0.5]];portConstraint=eastwest;swimlaneFillColor=#ffffff;whiteSpace=wrap;fontSize=15;" vertex="1" parent="-OGWa6dfMV56XT3KgPaG-61">
          <mxGeometry y="28" width="214" height="121" as="geometry" />
        </mxCell>
        <mxCell id="-OGWa6dfMV56XT3KgPaG-63" value="" style="line;strokeWidth=1;fillColor=none;align=left;verticalAlign=middle;spacingTop=-1;spacingLeft=3;spacingRight=3;rotatable=0;labelPosition=right;points=[];portConstraint=eastwest;" vertex="1" parent="-OGWa6dfMV56XT3KgPaG-61">
          <mxGeometry y="149" width="214" height="8" as="geometry" />
        </mxCell>
        <mxCell id="-OGWa6dfMV56XT3KgPaG-64" value="     e" style="part=1;resizeHeight=0;strokeColor=none;fillColor=none;align=left;verticalAlign=middle;spacingLeft=4;spacingRight=4;rotatable=0;points=[[0,0.5],[1,0.5]];portConstraint=eastwest;swimlaneFillColor=#ffffff;whiteSpace=wrap;overflow=block;blockSpacing=1;html=1;fontSize=13;" vertex="1" parent="-OGWa6dfMV56XT3KgPaG-61">
          <mxGeometry y="157" width="214" height="95" as="geometry" />
        </mxCell>
        <mxCell id="-OGWa6dfMV56XT3KgPaG-65" value="Emprestimo (Usuario, Livro)" style="html=1;overflow=block;blockSpacing=1;swimlane;childLayout=stackLayout;horizontal=1;horizontalStack=0;resizeParent=1;resizeParentMax=0;resizeLast=0;collapsible=0;fontStyle=0;marginBottom=0;swimlaneFillColor=#ffffff;startSize=28;whiteSpace=wrap;fontSize=15;align=left;spacing=0;strokeWidth=1.5;" vertex="1" parent="1">
          <mxGeometry x="690" y="180" width="210" height="147" as="geometry" />
        </mxCell>
        <mxCell id="-OGWa6dfMV56XT3KgPaG-66" value="&lt;div style=&quot;display: flex; justify-content: center; text-align: center; align-items: baseline; font-size: 0; line-height: 1.25;margin-top: -2px;&quot;&gt;&lt;span&gt;&lt;span style=&quot;font-size:15px;&quot;&gt;+ id_emprestimo&#xa;+ id_usuario&#xa;+ nome_livro: string&lt;/span&gt;&lt;span style=&quot;font-size:13px;&quot;&gt;&#xa;&lt;/span&gt;&lt;span style=&quot;font-size:15px;&quot;&gt;+ isbn: string&#xa;+ edicao: int             &lt;/span&gt;&lt;/span&gt;&lt;/div&gt;" style="part=1;html=1;resizeHeight=0;strokeColor=none;fillColor=none;align=left;verticalAlign=middle;spacingLeft=4;spacingRight=4;overflow=hidden;rotatable=0;points=[[0,0.5],[1,0.5]];portConstraint=eastwest;swimlaneFillColor=#ffffff;whiteSpace=wrap;fontSize=15;" vertex="1" parent="-OGWa6dfMV56XT3KgPaG-65">
          <mxGeometry y="28" width="210" height="67" as="geometry" />
        </mxCell>
        <mxCell id="-OGWa6dfMV56XT3KgPaG-67" value="" style="line;strokeWidth=1;fillColor=none;align=left;verticalAlign=middle;spacingTop=-1;spacingLeft=3;spacingRight=3;rotatable=0;labelPosition=right;points=[];portConstraint=eastwest;" vertex="1" parent="-OGWa6dfMV56XT3KgPaG-65">
          <mxGeometry y="95" width="210" height="8" as="geometry" />
        </mxCell>
        <mxCell id="-OGWa6dfMV56XT3KgPaG-68" value="" style="part=1;resizeHeight=0;strokeColor=none;fillColor=none;align=left;verticalAlign=middle;spacingLeft=4;spacingRight=4;rotatable=0;points=[[0,0.5],[1,0.5]];portConstraint=eastwest;swimlaneFillColor=#ffffff;whiteSpace=wrap;overflow=block;blockSpacing=1;html=1;fontSize=13;" vertex="1" parent="-OGWa6dfMV56XT3KgPaG-65">
          <mxGeometry y="103" width="210" height="44" as="geometry" />
        </mxCell>
        <mxCell id="-OGWa6dfMV56XT3KgPaG-69" value="" style="html=1;jettySize=18;whiteSpace=wrap;overflow=block;blockSpacing=1;fontSize=13;strokeWidth=1.5;rounded=1;arcSize=0;edgeStyle=orthogonalEdgeStyle;startArrow=none;endArrow=block;endFill=0;endSize=12;exitX=1.003;exitY=0.5;exitPerimeter=0;entryX=0.5;entryY=-0.004;entryPerimeter=0;lucidId=mglERW6mzjlb;" edge="1" parent="1" source="-OGWa6dfMV56XT3KgPaG-53" target="-OGWa6dfMV56XT3KgPaG-45">
          <mxGeometry width="100" height="100" relative="1" as="geometry">
            <Array as="points" />
          </mxGeometry>
        </mxCell>
        <mxCell id="-OGWa6dfMV56XT3KgPaG-70" value="" style="html=1;jettySize=18;whiteSpace=wrap;overflow=block;blockSpacing=1;fontSize=13;strokeWidth=1.5;rounded=1;arcSize=0;edgeStyle=orthogonalEdgeStyle;startArrow=none;endArrow=block;endFill=0;endSize=12;exitX=1.002;exitY=0.5;exitPerimeter=0;entryX=0.5;entryY=1.004;entryPerimeter=0;lucidId=qglEgDiE2UQK;" edge="1" parent="1" source="-OGWa6dfMV56XT3KgPaG-41" target="-OGWa6dfMV56XT3KgPaG-45">
          <mxGeometry width="100" height="100" relative="1" as="geometry">
            <Array as="points" />
          </mxGeometry>
        </mxCell>
        <mxCell id="-OGWa6dfMV56XT3KgPaG-71" value="" style="html=1;jettySize=18;whiteSpace=wrap;overflow=block;blockSpacing=1;fontSize=13;strokeWidth=1.5;rounded=1;arcSize=0;edgeStyle=orthogonalEdgeStyle;startArrow=none;endArrow=block;endFill=0;endSize=12;exitX=-0.004;exitY=0.5;exitPerimeter=0;entryX=0.5;entryY=-0.003;entryPerimeter=0;lucidId=FglEVSZwCNKc;" edge="1" parent="1" source="-OGWa6dfMV56XT3KgPaG-57" target="-OGWa6dfMV56XT3KgPaG-61">
          <mxGeometry width="100" height="100" relative="1" as="geometry">
            <Array as="points" />
          </mxGeometry>
        </mxCell>
        <mxCell id="-OGWa6dfMV56XT3KgPaG-72" value="Pede emprestimo" style="html=1;overflow=block;blockSpacing=1;whiteSpace=wrap;fontSize=13;spacing=3.8;strokeOpacity=0;fillOpacity=0;fillColor=#ffffff;strokeWidth=NaN;lucidId=9klE.wSyDk-s;" vertex="1" parent="1">
          <mxGeometry x="960" y="302" width="120" height="17" as="geometry" />
        </mxCell>
        <mxCell id="-OGWa6dfMV56XT3KgPaG-73" value="Aceita emprestimo" style="html=1;overflow=block;blockSpacing=1;whiteSpace=wrap;fontSize=13;spacing=3.8;strokeOpacity=0;fillOpacity=0;fillColor=#ffffff;strokeWidth=NaN;lucidId=IllER52t06kr;" vertex="1" parent="1">
          <mxGeometry x="960" y="210" width="120" height="17" as="geometry" />
        </mxCell>
        <mxCell id="-OGWa6dfMV56XT3KgPaG-74" value="" style="html=1;jettySize=18;whiteSpace=wrap;overflow=block;blockSpacing=1;fontSize=13;strokeWidth=1.5;rounded=1;arcSize=0;edgeStyle=orthogonalEdgeStyle;startArrow=block;startFill=0;startSize=12;endArrow=none;exitX=0.5;exitY=1.003;exitPerimeter=0;entryX=-0.004;entryY=0.5;entryPerimeter=0;lucidId=VmlEpHmmBoi.;" edge="1" parent="1" source="-OGWa6dfMV56XT3KgPaG-61" target="-OGWa6dfMV56XT3KgPaG-49">
          <mxGeometry width="100" height="100" relative="1" as="geometry">
            <Array as="points" />
          </mxGeometry>
        </mxCell>
        <mxCell id="-OGWa6dfMV56XT3KgPaG-75" value="Ã© emprestado&#xa;" style="html=1;overflow=block;blockSpacing=1;whiteSpace=wrap;fontSize=13;spacing=3.8;strokeOpacity=0;fillOpacity=0;fillColor=#ffffff;strokeWidth=NaN;lucidId=snlEcpwzhno1;" vertex="1" parent="1">
          <mxGeometry x="525" y="299" width="120" height="17" as="geometry" />
        </mxCell>
        <mxCell id="-OGWa6dfMV56XT3KgPaG-76" value="Ã© alugado&#xa;" style="html=1;overflow=block;blockSpacing=1;whiteSpace=wrap;fontSize=13;spacing=3.8;strokeOpacity=0;fillOpacity=0;fillColor=#ffffff;strokeWidth=NaN;lucidId=OnlEHm5Oonf8;" vertex="1" parent="1">
          <mxGeometry x="525" y="210" width="120" height="17" as="geometry" />
        </mxCell>
        <mxCell id="-OGWa6dfMV56XT3KgPaG-77" value="" style="html=1;jettySize=18;whiteSpace=wrap;overflow=block;blockSpacing=1;fontSize=13;strokeWidth=1.5;rounded=1;arcSize=0;edgeStyle=orthogonalEdgeStyle;startArrow=none;endArrow=none;exitX=0.5;exitY=1.004;exitPerimeter=0;entryX=1.004;entryY=0.34;entryPerimeter=0;lucidId=zplEP~shHxEF;" edge="1" parent="1" source="-OGWa6dfMV56XT3KgPaG-53" target="-OGWa6dfMV56XT3KgPaG-65">
          <mxGeometry width="100" height="100" relative="1" as="geometry">
            <Array as="points" />
          </mxGeometry>
        </mxCell>
        <mxCell id="-OGWa6dfMV56XT3KgPaG-78" value="" style="html=1;jettySize=18;whiteSpace=wrap;overflow=block;blockSpacing=1;fontSize=13;strokeWidth=1.5;rounded=1;arcSize=0;edgeStyle=orthogonalEdgeStyle;startArrow=none;endArrow=none;exitX=0.5;exitY=-0.004;exitPerimeter=0;entryX=1.004;entryY=0.691;entryPerimeter=0;lucidId=KplEwV-e2ZZU;" edge="1" parent="1" source="-OGWa6dfMV56XT3KgPaG-41" target="-OGWa6dfMV56XT3KgPaG-65">
          <mxGeometry width="100" height="100" relative="1" as="geometry">
            <Array as="points" />
          </mxGeometry>
        </mxCell>
        <mxCell id="-OGWa6dfMV56XT3KgPaG-79" value="" style="html=1;jettySize=18;whiteSpace=wrap;overflow=block;blockSpacing=1;fontSize=13;strokeWidth=1.5;rounded=1;arcSize=0;edgeStyle=orthogonalEdgeStyle;startArrow=none;endArrow=none;exitX=0.5;exitY=1.007;exitPerimeter=0;entryX=-0.004;entryY=0.333;entryPerimeter=0;lucidId=ErlEDwtae~WL;" edge="1" parent="1" source="-OGWa6dfMV56XT3KgPaG-57" target="-OGWa6dfMV56XT3KgPaG-65">
          <mxGeometry width="100" height="100" relative="1" as="geometry">
            <Array as="points" />
          </mxGeometry>
        </mxCell>
        <mxCell id="-OGWa6dfMV56XT3KgPaG-80" value="" style="html=1;jettySize=18;whiteSpace=wrap;overflow=block;blockSpacing=1;fontSize=13;strokeWidth=1.5;rounded=1;arcSize=0;edgeStyle=orthogonalEdgeStyle;startArrow=none;endArrow=none;exitX=0.501;exitY=-0.008;exitPerimeter=0;entryX=-0.004;entryY=0.685;entryPerimeter=0;lucidId=2rlE1OIrOljk;" edge="1" parent="1" source="-OGWa6dfMV56XT3KgPaG-49" target="-OGWa6dfMV56XT3KgPaG-65">
          <mxGeometry width="100" height="100" relative="1" as="geometry">
            <Array as="points" />
          </mxGeometry>
        </mxCell>
      </root>
    </mxGraphModel>
  </diagram>
</mxfile>
